<svg xmlns="http://www.w3.org/2000/svg" width="167" height="60" fill="none"><path fill="#000" d="M86.429 33.633c-.74-.633-3.587-.316-3.587-3.475V12.717c0-3.93-1.407-6.809-3.657-8.842C76.229 1.208 71.837.087 67.298.087c-3.022.034-6.083.563-8.788 1.546C53.692 3.317 50 6.3 49.755 9.95c-.105 1.792.421 3.158 1.302 4.07 2.885 3.122 9.774 1.51 10.304-3.928.456-4.634 3.482-5.93 6.226-5.546 2.075.279 3.62 2.316 3.34 5.3-.456 4.246-10.689 5.683-17.582 10.458-1.265.88-2.425 1.896-3.41 3.054-2.53 2.984-3.236 6.038-2.848 8.704.597 3.93 3.586 7.017 6.855 7.93 5.87 1.65 13.711-1.613 16.876-5.613.071 2.175 1.653 4.104 4.254 4.88 2.46.7 5.908.387 9.879-1.859 1.97-1.12 2.672-2.77 1.478-3.754m-15.644-3.08a.629.629 0 0 1-.138.4c-2.702 3.413-9.553 3.672-10.73-1.229-1.482-6.345 8.145-13.095 10.521-14.65a.332.332 0 0 1 .514.284l-.167 15.2v-.004ZM57.97 44.447c-.743.987-1.094 2.291-1.094 3.875.109 4.342-2.146 8.112-6.179 8.033-17.777-.358 1.44-45.967-16.487-54.575-5.808-2.787-13.736-2.496-18.254 3.559-.104-1.359 1.002-5.2-1.307-5.25-2.02.033-2.818 2.224-5.156 3.416-3.002 1.53-5.523 1.967-7.699 3.067C-.76 7.608-.213 10.4 1.653 11.363c1.892 1.133 2.51 2.483 2.439 5.287v-.137L4.088 32.27c-.034 1.837-.284 3.066-.815 3.846-.53.812-1.098 1.412-1.699 1.8-.46.316-.81.637-1.098.987-.33.4-.48.875-.476 1.588 0 .495.23.883.618 1.2.388.316 1.169.458 2.3.458h14.23c1.168 0 1.945-.142 2.337-.458.389-.317.606-.75.627-1.246.029-.68-.184-1.171-.485-1.546-.3-.37-.672-.67-1.098-.987-.601-.388-1.169-.988-1.7-1.8-.53-.776-.813-2.009-.847-3.846 0 0-.046-17.592 2.096-23.513 1.62-4.483 7.048-6.354 9.816-2.57 1.023 1.445 1.695 3.345 2.012 5.779.81 5.304.489 24.554.564 30.295-.017 5.575 1.979 10.184 6.212 13.392 7.232 5.212 18.208 6.08 25.773.742 2.869-1.988 5.486-5.005 5.474-8.488.447-5.629-6.906-7.82-9.958-3.454M165.914 2.192c-.985-1.334-2.776-2.034-5.415-2.105-2.288.071-4.292.738-6.05 2-1.757 1.23-3.269 2.667-4.467 4.246a45.006 45.006 0 0 0-2.847 4.084c-.071.141-.142.245-.209.387V9.05c0-.808-.05-2.17.037-3.763.075-1.37 1.011-5.241-1.315-5.287-2.037.033-2.839 2.242-5.194 3.442-3.027 1.541-5.565 1.983-7.753 3.087-2.576 1.046-2.021 3.858-.142 4.83 1.908 1.141 2.526 2.504 2.455 5.324v-.17l-.012 15.729c-.034 1.829-.28 3.129-.81 3.904-.53.808-1.094 1.408-1.691 1.791a5.315 5.315 0 0 0-1.094.984c-.326.4-.48.87-.472 1.583 0 .492.226.88.614 1.196.388.317 1.165.458 2.292.458h14.166c1.165 0 1.937-.141 2.326-.458.388-.317.605-.746.626-1.238.029-.675-.184-1.166-.484-1.537-.297-.367-.668-.667-1.094-.983-.597-.388-1.161-.984-1.691-1.792-.53-.775-.81-2.075-.848-3.904 0 0-.087-5.821-.021-7.275.071-1.613.176-3.613.702-6 .563-2.421 1.724-4.388 3.553-5.93 1.791-1.579 4.605-1.895 8.367-1.016 1.933.42 3.586.104 4.922-1.017 1.303-1.087 2.146-2.491 2.497-4.208.351-1.683.033-3.23-.948-4.596m-36.945 31.43c-.739-.634-3.587-.317-3.587-3.476V12.717c0-3.93-1.407-6.809-3.657-8.842-2.952-2.667-7.348-3.792-11.882-3.792-3.023.034-6.084.563-8.789 1.546-4.818 1.683-8.509 4.667-8.755 8.317-.105 1.792.421 3.158 1.302 4.07 2.886 3.121 9.774 1.509 10.305-3.928.455-4.634 3.482-5.93 6.225-5.546 2.075.279 3.619 2.316 3.34 5.3-.46 4.245-10.688 5.683-17.582 10.458-1.265.88-2.425 1.896-3.41 3.054-2.53 2.983-3.236 6.038-2.848 8.704.597 3.93 3.586 7.017 6.856 7.93 5.87 1.65 13.71-1.613 16.875-5.613.071 2.175 1.654 4.104 4.255 4.88 2.459.7 5.907.387 9.878-1.86 1.971-1.12 2.672-2.77 1.478-3.753m-15.648-3.075a.628.628 0 0 1-.138.4c-2.701 3.412-9.557 3.67-10.73-1.23-1.482-6.345 8.15-13.095 10.521-14.65a.332.332 0 0 1 .514.284l-.167 15.2v-.004Z"/><path fill="#3FF0FF" d="M110.694 42.167a5.51 5.51 0 0 0-5.515 5.504 5.508 5.508 0 0 0 5.515 5.504 5.504 5.504 0 1 0 0-11.008Zm-24.253 0a5.51 5.51 0 0 0-5.515 5.504 5.507 5.507 0 0 0 5.515 5.504 5.504 5.504 0 1 0 0-11.008Z"/></svg>